<?xml version="1.0" encoding="utf-8"?>
<!-- Generator: Adobe Illustrator 23.0.3, SVG Export Plug-In . SVG Version: 6.00 Build 0)  -->
<svg version="1.1" id="Icons" xmlns="http://www.w3.org/2000/svg" xmlns:xlink="http://www.w3.org/1999/xlink" x="0px" y="0px"
	 viewBox="0 0 32 32" style="enable-background:new 0 0 32 32;" xml:space="preserve">
<style type="text/css">
	.st0{fill:none;stroke:#000000;stroke-width:2;stroke-linecap:round;stroke-linejoin:round;stroke-miterlimit:10;}
	.st1{fill:none;stroke:#000000;stroke-width:2;stroke-linejoin:round;stroke-miterlimit:10;}
</style>
<path class="st0" d="M24,13H4l2-4.6C6.6,7,8,6,9.6,6h8.7c1.6,0,3,1,3.7,2.4L24,13z"/>
<path class="st0" d="M8,23H2v2c0,1.1,0.9,2,2,2h2c1.1,0,2-0.9,2-2V23z"/>
<line class="st0" x1="1" y1="12" x2="4.4" y2="12"/>
<line class="st0" x1="24" y1="12" x2="27" y2="12"/>
<path class="st0" d="M19,23H9l1.4-2.9c0.3-0.7,1-1.1,1.8-1.1h3.5c0.8,0,1.5,0.4,1.8,1.1L19,23z"/>
<line class="st0" x1="4" y1="18" x2="7" y2="18"/>
<g>
	<path class="st1" d="M29.2,22.7c-0.5,0.9-1.3,1.4-2.4,1.5c-0.6,0.1-1-0.3-1-0.8c-0.1-1.1-0.1-2.2-0.3-3.3c-0.2-1.2-0.8-2.2-1.6-3.1
		c0,0-0.1,0-0.1,0.1c-0.5,1.3-1.4,2.4-2.2,3.6c-1.1,1.4-1.6,3-1.6,4.8c0.1,2.4,2.4,4.6,5,4.5c2.4,0,4.5-1.7,4.9-3.9
		c0.3-1.2,0.1-2.7-0.4-3.8C29.4,22.5,29.3,22.6,29.2,22.7z"/>
</g>
<path class="st0" d="M20.3,23H3c-1.1,0-2-0.9-2-2v-4c0-2.2,1.8-4,4-4h18c2.2,0,4,1.8,4,4v4c0,0.8-0.5,1.5-1.2,1.8"/>
</svg>
